<?xml version="1.0" standalone="no"?>
<!DOCTYPE svg PUBLIC "-//W3C//DTD SVG 20010904//EN"
 "http://www.w3.org/TR/2001/REC-SVG-20010904/DTD/svg10.dtd">
<svg version="1.0" xmlns="http://www.w3.org/2000/svg"
 width="1536.000000pt" height="1536.000000pt" viewBox="0 0 1536.000000 1536.000000"
 preserveAspectRatio="xMidYMid meet">
<metadata>
Created by potrace 1.10, written by Peter Selinger 2001-2011
</metadata>
<g transform="translate(0.000000,1536.000000) scale(0.100000,-0.100000)"
fill="#04fb21" stroke="none">
<path d="M1823 12516 c-35 -7 -71 -20 -80 -28 -10 -9 -44 -19 -75 -23 -49 -5
-58 -9 -58 -27 0 -15 -4 -18 -17 -13 -31 12 -36 10 -47 -11 -6 -11 -17 -19
-23 -17 -13 5 -33 -9 -66 -46 -45 -51 -70 -71 -88 -71 -11 0 -19 -6 -19 -13 0
-18 -23 -67 -32 -67 -12 0 -68 -61 -68 -74 0 -7 -12 -26 -27 -42 -14 -15 -27
-40 -27 -55 -1 -15 -5 -27 -10 -26 -16 3 -30 -55 -17 -75 15 -24 14 -27 -8
-21 -25 6 -34 -22 -14 -42 14 -15 14 -19 -7 -48 -19 -24 -23 -42 -21 -81 2
-55 4 -6189 1 -6258 -3 -79 2 -108 15 -108 23 0 29 -22 10 -36 -22 -16 -13
-44 14 -44 25 0 35 -29 18 -49 -17 -19 -12 -41 9 -41 9 0 12 -5 9 -10 -10 -16
5 -50 21 -50 10 0 13 -6 10 -18 -4 -12 1 -26 14 -37 11 -10 20 -24 20 -32 0
-7 4 -13 9 -13 5 0 11 -9 14 -20 3 -11 13 -20 22 -20 21 0 54 -39 55 -62 0
-10 5 -18 10 -18 6 0 10 -7 10 -15 0 -8 7 -15 16 -15 17 0 93 -55 107 -77 13
-20 65 -42 88 -36 19 5 21 3 15 -12 -9 -24 12 -37 37 -23 15 8 22 5 34 -11 11
-16 20 -20 40 -15 19 5 30 2 40 -12 8 -10 26 -21 41 -23 15 -2 2214 -5 4887
-8 3671 -3 4880 -1 4942 7 53 8 92 19 108 32 14 10 33 18 42 17 10 -1 25 1 33
4 8 3 26 7 40 9 18 2 24 8 22 21 -3 16 1 18 26 12 22 -4 31 -2 35 9 4 9 13 16
22 16 19 0 30 9 92 73 25 26 55 47 65 47 10 0 18 7 18 15 0 26 23 65 42 70 10
4 18 12 18 20 0 7 6 15 14 18 8 3 22 22 32 42 9 20 23 39 31 42 7 3 13 13 13
23 0 9 9 27 20 40 21 24 28 80 10 80 -5 0 -10 7 -10 16 0 10 6 14 14 11 23 -9
41 19 26 38 -11 13 -9 23 6 57 11 25 17 58 16 82 -2 23 -5 1424 -8 3114 -3
2102 -1 3079 6 3092 15 27 1 150 -16 150 -22 0 -27 20 -9 40 20 22 13 37 -21
50 -27 11 -30 22 -10 40 17 13 11 40 -9 40 -8 0 -10 9 -7 26 3 20 0 26 -17 31
-15 4 -20 11 -16 23 3 9 -3 24 -15 35 -11 10 -20 24 -20 32 0 7 -4 13 -9 13
-5 0 -11 9 -14 20 -3 11 -13 20 -22 20 -18 0 -54 38 -55 57 0 17 -32 53 -46
53 -6 0 -33 20 -60 46 -58 54 -100 76 -127 68 -15 -5 -19 -3 -14 9 8 21 -14
37 -40 31 -11 -3 -24 -1 -27 5 -4 6 -21 11 -38 11 -17 0 -39 6 -47 13 -9 8
-46 19 -82 25 -99 18 -9728 15 -9816 -2z m9763 -77 c72 -10 130 -26 232 -63
54 -20 134 -77 227 -161 34 -31 105 -120 105 -132 0 -3 6 -14 14 -22 23 -26
77 -161 92 -231 12 -56 14 -511 14 -3225 0 -2261 -3 -3180 -11 -3230 -19 -117
-124 -305 -222 -399 -54 -51 -207 -156 -227 -156 -6 0 -32 -9 -58 -19 -26 -10
-72 -26 -102 -35 -50 -15 -468 -16 -4930 -14 -4155 3 -4880 5 -4910 17 -19 8
-70 27 -112 43 -42 17 -98 43 -124 60 -50 32 -166 127 -173 141 -2 5 -16 23
-31 40 -27 32 -41 57 -87 152 -13 28 -28 58 -34 69 -40 71 -39 -21 -39 3323 0
2282 3 3206 11 3232 13 44 27 84 45 133 17 46 92 171 109 180 7 4 16 18 19 30
4 13 29 41 57 63 97 76 182 135 195 135 7 0 28 6 46 14 100 43 125 50 186 56
118 12 9621 11 9708 -1z"/>
<path d="M1880 12028 c-36 -11 -74 -30 -86 -42 -12 -11 -34 -29 -48 -39 -50
-34 -105 -116 -126 -186 -20 -68 -20 -84 -20 -3158 0 -3081 0 -3091 20 -3154
24 -74 50 -116 111 -179 55 -57 88 -78 153 -98 46 -14 526 -16 4761 -19 2821
-2 4760 1 4835 6 108 8 132 13 174 37 57 32 130 101 169 159 61 93 57 -139 57
3260 l0 3100 -27 69 c-37 93 -120 179 -218 227 l-70 34 -4810 1 c-4781 2
-4810 2 -4875 -18z m110 -53 c11 -13 551 -15 4750 -15 4268 0 4739 2 4750 16
8 9 25 14 44 12 25 -2 31 -7 29 -25 -3 -23 0 -25 64 -28 26 -1 143 -120 143
-145 0 -9 9 -25 20 -35 21 -19 29 -95 10 -95 -7 0 -10 -1027 -10 -3060 0
-2033 3 -3060 10 -3060 6 0 10 -14 10 -30 0 -34 -25 -90 -40 -90 -6 0 -10 -11
-10 -24 0 -13 -7 -26 -15 -30 -8 -3 -20 -17 -25 -31 -5 -14 -16 -25 -24 -25
-7 0 -16 -7 -20 -15 -3 -8 -12 -15 -19 -15 -8 0 -20 -6 -26 -14 -6 -8 -22 -11
-37 -8 -22 4 -25 2 -22 -19 2 -20 -2 -25 -25 -27 -16 -2 -39 4 -52 12 -22 15
-470 16 -4755 16 -4312 0 -4733 -1 -4755 -16 -18 -12 -35 -14 -67 -9 -38 7
-40 9 -20 16 34 13 26 27 -20 34 -68 10 -76 14 -82 40 -4 14 -13 25 -21 25
-17 0 -65 61 -65 82 0 8 -9 23 -20 33 -21 19 -29 95 -10 95 7 0 10 1027 10
3060 0 2033 -3 3060 -10 3060 -5 0 -10 14 -10 30 0 34 25 90 40 90 6 0 10 10
10 23 0 12 9 28 20 35 11 7 20 18 20 26 0 15 42 46 63 46 8 0 19 12 26 27 9
20 15 23 23 15 20 -20 38 -13 38 13 0 22 4 25 34 25 18 0 39 -7 46 -15z"/>
<path d="M3097 10604 c-3 -4 -6 -197 -6 -431 -1 -356 1 -427 13 -439 13 -12
82 -14 443 -12 l428 3 3 443 2 442 -438 0 c-241 0 -441 -3 -445 -6z m775 -101
c16 -26 18 -65 22 -309 4 -314 -2 -366 -44 -373 -14 -2 -146 -6 -295 -8 -297
-5 -339 0 -355 43 -6 14 -10 158 -10 324 0 278 1 299 19 321 l19 24 304 5
c166 3 307 5 313 4 5 0 18 -14 27 -31z"/>
<path d="M5239 10608 c-5 -28 1 -882 7 -886 5 -4 200 -5 433 -2 l423 5 2 443
1 442 -432 0 c-238 0 -433 -1 -434 -2z m752 -104 l24 -26 2 -300 c1 -191 -2
-308 -9 -323 -19 -42 -44 -45 -343 -45 l-285 0 -32 29 -32 29 2 303 c3 325 6
343 54 352 13 2 152 5 309 6 l286 1 24 -26z"/>
<path d="M7376 10170 c1 -243 4 -443 6 -446 7 -6 849 -6 855 0 3 3 5 202 5
443 l0 438 -434 3 -433 2 1 -440z m757 332 l27 -28 0 -306 0 -306 -32 -27 -31
-26 -294 3 -295 3 -24 28 -24 28 3 302 c2 271 4 306 20 330 l17 27 303 0 303
0 27 -28z"/>
<path d="M9440 10113 l0 -433 448 0 447 0 -1 432 -1 432 -446 0 -447 1 0 -432z
m739 337 c30 -8 42 -17 47 -35 9 -35 10 -574 1 -606 -3 -14 -17 -30 -30 -36
-28 -13 -552 -17 -606 -5 -27 6 -37 14 -44 37 -5 17 -8 160 -8 319 1 233 4
294 15 311 14 22 19 22 300 24 181 1 299 -2 325 -9z"/>
<path d="M3910 8769 c-19 -5 -201 -9 -405 -8 -203 0 -380 0 -392 0 l-23 -1 0
-425 c0 -398 1 -425 18 -425 9 -1 208 -1 442 -1 l425 0 0 433 c0 478 5 445
-65 427z m-84 -94 c48 -6 52 -8 58 -38 4 -18 9 -151 10 -297 3 -302 -2 -333
-56 -344 -39 -8 -576 -8 -605 0 -12 4 -26 19 -32 36 -12 33 -16 565 -5 605 11
41 62 48 331 46 137 -2 271 -5 299 -8z"/>
<path d="M5245 8770 c-4 -7 -7 -203 -7 -436 l0 -425 432 0 432 -1 0 434 0 433
-38 -5 c-66 -8 -747 -6 -781 3 -20 5 -33 4 -38 -3z m729 -100 c42 -15 47 -63
44 -365 -3 -247 -5 -276 -21 -292 -16 -16 -46 -18 -322 -21 l-305 -3 -25 25
c-24 24 -30 53 -28 126 0 14 2 134 3 268 l1 243 32 14 c25 11 96 14 314 15
156 0 293 -4 307 -10z"/>
<path d="M8165 8768 c-24 -5 -194 -8 -413 -6 -204 2 -372 1 -372 -2 -1 -3 -1
-196 -2 -428 l-1 -424 429 1 c236 0 431 1 434 1 8 0 3 847 -5 859 -7 13 -15
13 -70 -1z m-24 -117 c19 -23 20 -39 17 -324 l-3 -299 -24 -20 c-24 -18 -38
-19 -328 -16 -274 3 -304 5 -320 21 -16 16 -18 43 -18 310 0 161 3 304 8 319
4 14 15 29 25 31 9 3 154 4 320 4 l304 -2 19 -24z"/>
<path d="M9505 8768 c-3 -7 -4 -203 -3 -436 l3 -423 425 0 c234 0 433 0 443 1
16 0 17 27 17 428 l0 427 -402 0 c-222 0 -420 4 -441 8 -27 6 -39 4 -42 -5z
m718 -93 c38 -6 50 -13 58 -32 13 -34 12 -572 -2 -611 -6 -17 -20 -32 -32 -36
-12 -3 -158 -6 -324 -6 l-303 0 -17 27 c-16 25 -18 54 -15 328 2 249 6 303 18
315 21 21 506 33 617 15z"/>
<path d="M4858 6937 c-22 -17 -22 -34 -3 -80 12 -30 15 -92 15 -337 0 -245 -3
-307 -15 -337 -8 -19 -15 -44 -15 -55 0 -10 7 -21 15 -24 8 -4 15 -15 15 -25
0 -14 7 -19 28 -18 40 1 73 13 73 24 -1 7 594 10 1764 10 1170 0 1765 -3 1764
-10 -1 -21 104 -34 117 -14 3 6 8 194 9 418 1 223 4 417 6 431 4 24 3 25 -56
24 -228 -4 -3601 -3 -3645 1 -39 4 -60 1 -72 -8z m3636 -91 c15 -9 31 -28 36
-42 11 -28 12 -540 1 -589 -5 -25 -13 -31 -46 -39 -24 -6 -724 -11 -1725 -13
-1738 -4 -1771 -3 -1803 35 -9 11 -13 95 -15 312 -3 282 -2 298 17 321 l19 24
1589 5 c2039 6 1895 7 1927 -14z"/>
</g>
</svg>
