<svg xmlns="http://www.w3.org/2000/svg" width="192" height="192" viewBox="0 0 192 192" version="1.1"><path d="M 29.500 74.918 C 14.703 78.605, 7.871 93.497, 14.750 107.066 C 16.815 111.140, 18.725 113.238, 22.422 115.495 L 27.343 118.500 96 118.500 L 164.657 118.500 169.578 115.495 C 173.275 113.238, 175.185 111.140, 177.250 107.066 C 183.208 95.314, 179.261 83.005, 167.500 76.658 C 163.528 74.515, 163.045 74.499, 98 74.335 C 61.975 74.244, 31.150 74.507, 29.500 74.918 M 26.316 80.943 C 21.772 83.007, 17.613 88.414, 16.530 93.666 C 15.143 100.400, 19.613 109.087, 26.369 112.786 C 29.237 114.356, 35.082 114.500, 96 114.500 C 156.918 114.500, 162.763 114.356, 165.631 112.786 C 172.387 109.087, 176.857 100.400, 175.470 93.666 C 174.387 88.414, 170.228 83.007, 165.684 80.943 C 161.710 79.139, 158.210 79.044, 96 79.044 C 33.790 79.044, 30.290 79.139, 26.316 80.943 M 32.688 84.646 C 32.309 85.024, 32 90.658, 32 97.167 C 32 108.252, 32.124 109, 33.960 109 C 35.716 109, 35.949 108.180, 36.210 101.098 L 36.500 93.197 42.392 101.098 C 46.121 106.099, 48.977 109, 50.173 109 C 51.937 109, 52.043 108.193, 51.781 96.762 C 51.537 86.149, 51.273 84.481, 49.791 84.197 C 48.311 83.913, 48.044 84.962, 47.791 92.069 L 47.500 100.269 41.500 92.454 C 35.538 84.688, 34.004 83.329, 32.688 84.646 M 54.389 85.430 C 53.393 88.025, 54.788 90.169, 57.246 89.820 C 58.898 89.585, 59.500 88.833, 59.500 87 C 59.500 85.167, 58.898 84.415, 57.246 84.180 C 55.893 83.988, 54.750 84.488, 54.389 85.430 M 138 88.226 L 138 92.598 134.557 92.196 C 129.689 91.628, 126 95.387, 126 100.916 C 126 106.809, 128.770 109, 136.219 109 L 142.062 109 141.781 96.762 C 141.535 86.033, 141.284 84.483, 139.750 84.189 C 138.299 83.911, 138 84.600, 138 88.226 M 81.440 89.189 C 81.038 90.456, 79.993 92.016, 79.118 92.656 C 77.668 93.716, 77.675 93.984, 79.203 95.672 C 80.229 96.806, 80.999 99.651, 81.189 103.012 C 81.456 107.730, 81.781 108.500, 83.500 108.500 C 85.236 108.500, 85.540 107.733, 85.801 102.699 C 86.006 98.771, 86.571 96.718, 87.551 96.342 C 89.391 95.636, 89.425 93.344, 87.611 92.300 C 86.848 91.860, 86.055 90.605, 85.850 89.511 C 85.309 86.628, 82.322 86.409, 81.440 89.189 M 55 100.427 C 55 108.390, 55.145 109, 57.040 109 C 58.953 109, 59.063 108.483, 58.790 100.761 C 58.547 93.847, 58.219 92.468, 56.750 92.188 C 55.193 91.890, 55 92.801, 55 100.427 M 61.429 94.428 C 61.131 95.613, 61.026 99.265, 61.194 102.542 C 61.461 107.731, 61.758 108.500, 63.500 108.500 C 65.197 108.500, 65.576 107.667, 66 103 C 66.485 97.667, 66.591 97.500, 69.500 97.500 C 72.409 97.500, 72.515 97.667, 73 103 C 73.424 107.667, 73.803 108.500, 75.500 108.500 C 77.148 108.500, 77.555 107.729, 77.814 104.112 C 78.428 95.548, 75.031 92.055, 66.235 92.202 C 62.732 92.260, 61.873 92.658, 61.429 94.428 M 93.321 93.189 C 88.540 95.500, 87.905 104.419, 92.302 107.499 C 96.251 110.265, 103 109.182, 103 105.782 C 103 104.041, 102.549 103.862, 99.578 104.419 C 97.681 104.775, 95.887 104.626, 95.552 104.084 C 95.195 103.507, 97.109 102.982, 100.224 102.803 C 104.829 102.539, 105.541 102.213, 105.820 100.243 C 106.028 98.780, 105.089 96.935, 103.147 94.993 C 100.042 91.888, 97.121 91.352, 93.321 93.189 M 107.429 94.428 C 107.131 95.613, 107.026 99.265, 107.194 102.542 C 107.461 107.731, 107.758 108.500, 109.500 108.500 C 111.197 108.500, 111.576 107.667, 112 103 C 112.485 97.667, 112.591 97.500, 115.500 97.500 C 118.409 97.500, 118.515 97.667, 119 103 C 119.424 107.667, 119.803 108.500, 121.500 108.500 C 123.148 108.500, 123.555 107.729, 123.814 104.112 C 124.428 95.548, 121.031 92.055, 112.235 92.202 C 108.732 92.260, 107.873 92.658, 107.429 94.428 M 148.500 93.155 C 140.951 97.284, 143.539 109, 152 109 C 160.208 109, 163.187 97.217, 155.928 93.463 C 152.591 91.737, 151.197 91.679, 148.500 93.155 M 96.269 97.693 C 97.242 97.947, 98.592 97.930, 99.269 97.656 C 99.946 97.382, 99.150 97.175, 97.500 97.195 C 95.850 97.215, 95.296 97.439, 96.269 97.693 M 130.407 99.513 C 129.218 104.253, 134.760 107.185, 137 103 C 138.500 100.197, 136.626 97, 133.484 97 C 131.706 97, 130.866 97.686, 130.407 99.513 M 149.040 98.452 C 146.657 101.323, 149.944 105.726, 153.462 104.376 C 157.100 102.980, 155.915 97, 152 97 C 151.035 97, 149.703 97.653, 149.040 98.452" stroke="none" fill="#ff2404" fill-rule="evenodd"/><path d="" stroke="none" fill="#fc2404" fill-rule="evenodd"/></svg>